<?xml version="1.0" encoding="UTF-8" standalone="no"?>
<svg
   xmlns:dc="http://purl.org/dc/elements/1.1/"
   xmlns:cc="http://creativecommons.org/ns#"
   xmlns:rdf="http://www.w3.org/1999/02/22-rdf-syntax-ns#"
   xmlns:svg="http://www.w3.org/2000/svg"
   xmlns="http://www.w3.org/2000/svg"
   id="svg8351"
   version="1.2"
   viewBox="0 0 172.05188 105.694199"
   height="105.694199pt"
   width="172.05188pt">
  <metadata
     id="metadata8355">
    <rdf:RDF>
      <cc:Work
         rdf:about="">
        <dc:format>image/svg+xml</dc:format>
        <dc:type
           rdf:resource="http://purl.org/dc/dcmitype/StillImage" />
        <dc:title></dc:title>
      </cc:Work>
    </rdf:RDF>
  </metadata>
  <defs
     id="defs8296">
    <clipPath
       id="clip1">
      <path
         id="path8290"
         d="M 157 63 L 172.050781 63 L 172.050781 84 L 157 84 Z M 157 63 " />
    </clipPath>
    <clipPath
       id="clip2">
      <path
         id="path8293"
         d="M 129 93 L 137 93 L 137 105.695312 L 129 105.695312 Z M 129 93 " />
    </clipPath>
  </defs>
  <g
     id="surface928497">
    <path
       id="path8298"
       d="M 7.726562 67.589844 L 9.664062 74.214844 L 5.757812 74.214844 Z M 11.882812 81.605469 C 12.007812 81.992188 12.230469 82.300781 12.554688 82.527344 C 12.886719 82.746094 13.246094 82.855469 13.632812 82.855469 C 13.953125 82.855469 14.226562 82.800781 14.445312 82.683594 C 14.671875 82.558594 14.855469 82.410156 14.992188 82.230469 C 15.136719 82.054688 15.246094 81.855469 15.320312 81.636719 C 15.390625 81.410156 15.429688 81.199219 15.429688 81.011719 C 15.429688 80.804688 15.386719 80.582031 15.304688 80.339844 L 10.335938 65.980469 C 10.230469 65.660156 10.09375 65.351562 9.929688 65.058594 C 9.773438 64.769531 9.585938 64.511719 9.367188 64.292969 C 9.15625 64.074219 8.914062 63.902344 8.632812 63.777344 C 8.359375 63.652344 8.058594 63.589844 7.726562 63.589844 C 7.371094 63.589844 7.058594 63.652344 6.789062 63.777344 C 6.515625 63.902344 6.277344 64.074219 6.070312 64.292969 C 5.859375 64.511719 5.671875 64.769531 5.507812 65.058594 C 5.351562 65.351562 5.21875 65.660156 5.117188 65.980469 L 0.117188 80.339844 C 0.03125 80.582031 -0.0078125 80.804688 -0.0078125 81.011719 C -0.0078125 81.492188 0.152344 81.917969 0.476562 82.292969 C 0.808594 82.667969 1.257812 82.855469 1.820312 82.855469 C 2.203125 82.855469 2.558594 82.746094 2.882812 82.527344 C 3.214844 82.300781 3.445312 81.992188 3.570312 81.605469 L 4.945312 77.027344 L 10.507812 77.027344 Z M 11.882812 81.605469 "
       style=" stroke:none;fill-rule:nonzero;fill:rgb(24.313354%,50.195312%,79.214478%);fill-opacity:1;" />
    <path
       id="path8300"
       d="M 24.773438 76.089844 C 25.59375 76.089844 26.375 75.929688 27.117188 75.605469 C 27.867188 75.285156 28.515625 74.847656 29.070312 74.292969 C 29.621094 73.742188 30.058594 73.101562 30.382812 72.371094 C 30.703125 71.632812 30.867188 70.839844 30.867188 69.996094 C 30.867188 69.164062 30.703125 68.378906 30.382812 67.636719 C 30.058594 66.886719 29.621094 66.242188 29.070312 65.699219 C 28.515625 65.160156 27.867188 64.726562 27.117188 64.402344 C 26.375 64.082031 25.59375 63.917969 24.773438 63.917969 L 18.742188 63.917969 C 18.355469 63.917969 18.039062 63.988281 17.789062 64.121094 C 17.546875 64.257812 17.355469 64.429688 17.210938 64.636719 C 17.0625 64.835938 16.964844 65.042969 16.914062 65.261719 C 16.871094 65.472656 16.851562 65.648438 16.851562 65.792969 L 16.851562 81.027344 C 16.851562 81.539062 17.023438 81.972656 17.367188 82.324219 C 17.71875 82.679688 18.152344 82.855469 18.664062 82.855469 C 19.183594 82.855469 19.621094 82.679688 19.976562 82.324219 C 20.339844 81.972656 20.523438 81.539062 20.523438 81.027344 L 20.523438 76.089844 Z M 24.460938 67.058594 C 24.855469 67.058594 25.230469 67.136719 25.585938 67.292969 C 25.949219 67.441406 26.265625 67.648438 26.539062 67.917969 C 26.808594 68.179688 27.015625 68.492188 27.164062 68.855469 C 27.320312 69.210938 27.398438 69.589844 27.398438 69.996094 C 27.398438 70.414062 27.320312 70.800781 27.164062 71.152344 C 27.015625 71.496094 26.808594 71.804688 26.539062 72.074219 C 26.265625 72.347656 25.949219 72.558594 25.585938 72.714844 C 25.230469 72.871094 24.855469 72.949219 24.460938 72.949219 L 20.523438 72.949219 L 20.523438 67.058594 Z M 24.460938 67.058594 "
       style=" stroke:none;fill-rule:nonzero;fill:rgb(24.313354%,50.195312%,79.214478%);fill-opacity:1;" />
    <path
       id="path8302"
       d="M 36.132812 65.746094 C 36.132812 65.238281 35.949219 64.804688 35.585938 64.449219 C 35.230469 64.097656 34.792969 63.917969 34.273438 63.917969 C 33.761719 63.917969 33.328125 64.097656 32.976562 64.449219 C 32.632812 64.804688 32.460938 65.238281 32.460938 65.746094 L 32.460938 80.964844 C 32.460938 81.300781 32.511719 81.585938 32.617188 81.824219 C 32.730469 82.066406 32.875 82.261719 33.054688 82.417969 C 33.242188 82.566406 33.445312 82.675781 33.664062 82.746094 C 33.890625 82.820312 34.121094 82.855469 34.351562 82.855469 L 43.882812 82.855469 C 44.328125 82.855469 44.703125 82.707031 45.007812 82.402344 C 45.308594 82.101562 45.460938 81.726562 45.460938 81.277344 C 45.460938 80.839844 45.308594 80.472656 45.007812 80.167969 C 44.703125 79.867188 44.328125 79.714844 43.882812 79.714844 L 36.132812 79.714844 Z M 36.132812 65.746094 "
       style=" stroke:none;fill-rule:nonzero;fill:rgb(24.313354%,50.195312%,79.214478%);fill-opacity:1;" />
    <path
       id="path8304"
       d="M 50.523438 65.746094 C 50.523438 65.238281 50.339844 64.804688 49.976562 64.449219 C 49.621094 64.097656 49.183594 63.917969 48.664062 63.917969 C 48.152344 63.917969 47.71875 64.097656 47.367188 64.449219 C 47.023438 64.804688 46.851562 65.238281 46.851562 65.746094 L 46.851562 81.027344 C 46.851562 81.539062 47.023438 81.972656 47.367188 82.324219 C 47.71875 82.679688 48.152344 82.855469 48.664062 82.855469 C 49.183594 82.855469 49.621094 82.679688 49.976562 82.324219 C 50.339844 81.972656 50.523438 81.539062 50.523438 81.027344 Z M 50.523438 65.746094 "
       style=" stroke:none;fill-rule:nonzero;fill:rgb(24.313354%,50.195312%,79.214478%);fill-opacity:1;" />
    <path
       id="path8306"
       d="M 60.695312 63.589844 C 59.257812 63.589844 57.996094 63.863281 56.914062 64.402344 C 55.839844 64.945312 54.945312 65.667969 54.226562 66.574219 C 53.515625 67.480469 52.980469 68.527344 52.617188 69.714844 C 52.261719 70.894531 52.085938 72.113281 52.085938 73.371094 C 52.085938 74.652344 52.261719 75.882812 52.617188 77.058594 C 52.980469 78.238281 53.515625 79.277344 54.226562 80.183594 C 54.945312 81.089844 55.839844 81.816406 56.914062 82.355469 C 57.996094 82.894531 59.257812 83.167969 60.695312 83.167969 C 61.890625 83.167969 62.9375 82.972656 63.835938 82.589844 C 64.730469 82.207031 65.480469 81.753906 66.085938 81.230469 C 66.6875 80.699219 67.140625 80.152344 67.445312 79.589844 C 67.746094 79.027344 67.898438 78.574219 67.898438 78.230469 C 67.898438 77.972656 67.835938 77.730469 67.710938 77.511719 C 67.59375 77.285156 67.4375 77.089844 67.242188 76.933594 C 67.054688 76.769531 66.839844 76.636719 66.601562 76.542969 C 66.371094 76.449219 66.148438 76.402344 65.929688 76.402344 C 65.699219 76.402344 65.492188 76.460938 65.304688 76.574219 C 65.117188 76.679688 64.964844 76.847656 64.851562 77.074219 C 64.726562 77.347656 64.570312 77.648438 64.382812 77.980469 C 64.195312 78.316406 63.945312 78.636719 63.632812 78.949219 C 63.320312 79.253906 62.929688 79.507812 62.460938 79.714844 C 61.992188 79.925781 61.402344 80.027344 60.695312 80.027344 C 59.890625 80.027344 59.183594 79.832031 58.570312 79.433594 C 57.953125 79.039062 57.433594 78.535156 57.007812 77.917969 C 56.589844 77.292969 56.273438 76.585938 56.054688 75.792969 C 55.835938 75.003906 55.726562 74.195312 55.726562 73.371094 C 55.726562 72.570312 55.835938 71.773438 56.054688 70.980469 C 56.273438 70.191406 56.589844 69.488281 57.007812 68.871094 C 57.433594 68.246094 57.953125 67.738281 58.570312 67.339844 C 59.183594 66.945312 59.890625 66.746094 60.695312 66.746094 C 61.402344 66.746094 61.992188 66.851562 62.460938 67.058594 C 62.929688 67.269531 63.320312 67.523438 63.632812 67.824219 C 63.945312 68.117188 64.195312 68.433594 64.382812 68.777344 C 64.570312 69.121094 64.726562 69.425781 64.851562 69.683594 C 64.964844 69.902344 65.117188 70.070312 65.304688 70.183594 C 65.492188 70.300781 65.710938 70.355469 65.960938 70.355469 C 66.179688 70.355469 66.402344 70.308594 66.632812 70.214844 C 66.871094 70.113281 67.085938 69.980469 67.273438 69.824219 C 67.460938 69.667969 67.609375 69.480469 67.726562 69.261719 C 67.851562 69.035156 67.914062 68.789062 67.914062 68.527344 C 67.914062 68.195312 67.761719 67.746094 67.460938 67.183594 C 67.15625 66.621094 66.699219 66.082031 66.085938 65.558594 C 65.480469 65.027344 64.730469 64.570312 63.835938 64.183594 C 62.9375 63.789062 61.890625 63.589844 60.695312 63.589844 Z M 60.695312 63.589844 "
       style=" stroke:none;fill-rule:nonzero;fill:rgb(24.313354%,50.195312%,79.214478%);fill-opacity:1;" />
    <path
       id="path8308"
       d="M 76.304688 67.589844 L 78.242188 74.214844 L 74.335938 74.214844 Z M 80.460938 81.605469 C 80.585938 81.992188 80.808594 82.300781 81.132812 82.527344 C 81.464844 82.746094 81.824219 82.855469 82.210938 82.855469 C 82.53125 82.855469 82.804688 82.800781 83.023438 82.683594 C 83.25 82.558594 83.433594 82.410156 83.570312 82.230469 C 83.714844 82.054688 83.824219 81.855469 83.898438 81.636719 C 83.96875 81.410156 84.007812 81.199219 84.007812 81.011719 C 84.007812 80.804688 83.964844 80.582031 83.882812 80.339844 L 78.914062 65.980469 C 78.808594 65.660156 78.671875 65.351562 78.507812 65.058594 C 78.351562 64.769531 78.164062 64.511719 77.945312 64.292969 C 77.734375 64.074219 77.492188 63.902344 77.210938 63.777344 C 76.9375 63.652344 76.636719 63.589844 76.304688 63.589844 C 75.949219 63.589844 75.636719 63.652344 75.367188 63.777344 C 75.09375 63.902344 74.855469 64.074219 74.648438 64.292969 C 74.4375 64.511719 74.25 64.769531 74.085938 65.058594 C 73.929688 65.351562 73.796875 65.660156 73.695312 65.980469 L 68.695312 80.339844 C 68.609375 80.582031 68.570312 80.804688 68.570312 81.011719 C 68.570312 81.492188 68.730469 81.917969 69.054688 82.292969 C 69.386719 82.667969 69.835938 82.855469 70.398438 82.855469 C 70.78125 82.855469 71.136719 82.746094 71.460938 82.527344 C 71.792969 82.300781 72.023438 81.992188 72.148438 81.605469 L 73.523438 77.027344 L 79.085938 77.027344 Z M 80.460938 81.605469 "
       style=" stroke:none;fill-rule:nonzero;fill:rgb(24.313354%,50.195312%,79.214478%);fill-opacity:1;" />
    <path
       id="path8310"
       d="M 92.664062 63.589844 C 91.226562 63.589844 89.964844 63.863281 88.882812 64.402344 C 87.808594 64.945312 86.914062 65.667969 86.195312 66.574219 C 85.484375 67.480469 84.949219 68.527344 84.585938 69.714844 C 84.230469 70.894531 84.054688 72.113281 84.054688 73.371094 C 84.054688 74.652344 84.230469 75.882812 84.585938 77.058594 C 84.949219 78.238281 85.484375 79.277344 86.195312 80.183594 C 86.914062 81.089844 87.808594 81.816406 88.882812 82.355469 C 89.964844 82.894531 91.226562 83.167969 92.664062 83.167969 C 93.859375 83.167969 94.90625 82.972656 95.804688 82.589844 C 96.699219 82.207031 97.449219 81.753906 98.054688 81.230469 C 98.65625 80.699219 99.109375 80.152344 99.414062 79.589844 C 99.714844 79.027344 99.867188 78.574219 99.867188 78.230469 C 99.867188 77.972656 99.804688 77.730469 99.679688 77.511719 C 99.5625 77.285156 99.40625 77.089844 99.210938 76.933594 C 99.023438 76.769531 98.808594 76.636719 98.570312 76.542969 C 98.339844 76.449219 98.117188 76.402344 97.898438 76.402344 C 97.667969 76.402344 97.460938 76.460938 97.273438 76.574219 C 97.085938 76.679688 96.933594 76.847656 96.820312 77.074219 C 96.695312 77.347656 96.539062 77.648438 96.351562 77.980469 C 96.164062 78.316406 95.914062 78.636719 95.601562 78.949219 C 95.289062 79.253906 94.898438 79.507812 94.429688 79.714844 C 93.960938 79.925781 93.371094 80.027344 92.664062 80.027344 C 91.859375 80.027344 91.152344 79.832031 90.539062 79.433594 C 89.921875 79.039062 89.402344 78.535156 88.976562 77.917969 C 88.558594 77.292969 88.242188 76.585938 88.023438 75.792969 C 87.804688 75.003906 87.695312 74.195312 87.695312 73.371094 C 87.695312 72.570312 87.804688 71.773438 88.023438 70.980469 C 88.242188 70.191406 88.558594 69.488281 88.976562 68.871094 C 89.402344 68.246094 89.921875 67.738281 90.539062 67.339844 C 91.152344 66.945312 91.859375 66.746094 92.664062 66.746094 C 93.371094 66.746094 93.960938 66.851562 94.429688 67.058594 C 94.898438 67.269531 95.289062 67.523438 95.601562 67.824219 C 95.914062 68.117188 96.164062 68.433594 96.351562 68.777344 C 96.539062 69.121094 96.695312 69.425781 96.820312 69.683594 C 96.933594 69.902344 97.085938 70.070312 97.273438 70.183594 C 97.460938 70.300781 97.679688 70.355469 97.929688 70.355469 C 98.148438 70.355469 98.371094 70.308594 98.601562 70.214844 C 98.839844 70.113281 99.054688 69.980469 99.242188 69.824219 C 99.429688 69.667969 99.578125 69.480469 99.695312 69.261719 C 99.820312 69.035156 99.882812 68.789062 99.882812 68.527344 C 99.882812 68.195312 99.730469 67.746094 99.429688 67.183594 C 99.125 66.621094 98.667969 66.082031 98.054688 65.558594 C 97.449219 65.027344 96.699219 64.570312 95.804688 64.183594 C 94.90625 63.789062 93.859375 63.589844 92.664062 63.589844 Z M 92.664062 63.589844 "
       style=" stroke:none;fill-rule:nonzero;fill:rgb(24.313354%,50.195312%,79.214478%);fill-opacity:1;" />
    <path
       id="path8312"
       d="M 105.320312 65.746094 C 105.320312 65.238281 105.136719 64.804688 104.773438 64.449219 C 104.417969 64.097656 103.980469 63.917969 103.460938 63.917969 C 102.949219 63.917969 102.515625 64.097656 102.164062 64.449219 C 101.820312 64.804688 101.648438 65.238281 101.648438 65.746094 L 101.648438 81.027344 C 101.648438 81.539062 101.820312 81.972656 102.164062 82.324219 C 102.515625 82.679688 102.949219 82.855469 103.460938 82.855469 C 103.980469 82.855469 104.417969 82.679688 104.773438 82.324219 C 105.136719 81.972656 105.320312 81.539062 105.320312 81.027344 Z M 105.320312 65.746094 "
       style=" stroke:none;fill-rule:nonzero;fill:rgb(24.313354%,50.195312%,79.214478%);fill-opacity:1;" />
    <path
       id="path8314"
       d="M 115.476562 83.199219 C 116.882812 83.199219 118.121094 82.925781 119.195312 82.386719 C 120.265625 81.835938 121.164062 81.105469 121.882812 80.199219 C 122.601562 79.285156 123.140625 78.238281 123.507812 77.058594 C 123.871094 75.882812 124.054688 74.652344 124.054688 73.371094 C 124.054688 72.113281 123.871094 70.894531 123.507812 69.714844 C 123.140625 68.539062 122.601562 67.496094 121.882812 66.589844 C 121.164062 65.675781 120.265625 64.945312 119.195312 64.402344 C 118.121094 63.863281 116.882812 63.589844 115.476562 63.589844 C 114.046875 63.589844 112.796875 63.863281 111.726562 64.402344 C 110.652344 64.945312 109.757812 65.675781 109.039062 66.589844 C 108.320312 67.496094 107.777344 68.539062 107.414062 69.714844 C 107.058594 70.894531 106.882812 72.113281 106.882812 73.371094 C 106.882812 74.652344 107.058594 75.882812 107.414062 77.058594 C 107.777344 78.238281 108.320312 79.285156 109.039062 80.199219 C 109.757812 81.105469 110.652344 81.835938 111.726562 82.386719 C 112.796875 82.925781 114.046875 83.199219 115.476562 83.199219 Z M 120.585938 73.371094 C 120.585938 74.195312 120.484375 75.003906 120.289062 75.792969 C 120.101562 76.585938 119.796875 77.300781 119.382812 77.933594 C 118.964844 78.558594 118.433594 79.066406 117.789062 79.449219 C 117.152344 79.835938 116.382812 80.027344 115.476562 80.027344 C 114.558594 80.027344 113.777344 79.835938 113.132812 79.449219 C 112.484375 79.066406 111.953125 78.558594 111.539062 77.933594 C 111.121094 77.300781 110.8125 76.585938 110.617188 75.792969 C 110.429688 75.003906 110.335938 74.195312 110.335938 73.371094 C 110.335938 72.558594 110.429688 71.757812 110.617188 70.964844 C 110.8125 70.175781 111.121094 69.464844 111.539062 68.839844 C 111.953125 68.214844 112.484375 67.710938 113.132812 67.324219 C 113.777344 66.941406 114.558594 66.746094 115.476562 66.746094 C 116.382812 66.746094 117.152344 66.941406 117.789062 67.324219 C 118.433594 67.710938 118.964844 68.214844 119.382812 68.839844 C 119.796875 69.464844 120.101562 70.175781 120.289062 70.964844 C 120.484375 71.757812 120.585938 72.558594 120.585938 73.371094 Z M 120.585938 73.371094 "
       style=" stroke:none;fill-rule:nonzero;fill:rgb(24.313354%,50.195312%,79.214478%);fill-opacity:1;" />
    <path
       id="path8316"
       d="M 136.226562 81.246094 C 136.527344 81.746094 136.882812 82.144531 137.289062 82.433594 C 137.703125 82.714844 138.1875 82.855469 138.742188 82.855469 C 139.03125 82.855469 139.304688 82.804688 139.554688 82.699219 C 139.804688 82.597656 140.015625 82.449219 140.195312 82.261719 C 140.382812 82.066406 140.527344 81.847656 140.632812 81.605469 C 140.746094 81.355469 140.804688 81.085938 140.804688 80.792969 L 140.804688 65.652344 C 140.804688 65.175781 140.632812 64.769531 140.289062 64.433594 C 139.945312 64.089844 139.53125 63.917969 139.054688 63.917969 C 138.59375 63.917969 138.195312 64.089844 137.851562 64.433594 C 137.507812 64.769531 137.335938 65.175781 137.335938 65.652344 L 137.335938 77.433594 L 130.226562 65.527344 C 129.921875 65.019531 129.570312 64.621094 129.164062 64.339844 C 128.757812 64.058594 128.273438 63.917969 127.710938 63.917969 C 127.125 63.917969 126.636719 64.121094 126.242188 64.527344 C 125.84375 64.925781 125.648438 65.402344 125.648438 65.964844 L 125.648438 81.121094 C 125.648438 81.589844 125.820312 81.996094 126.164062 82.339844 C 126.507812 82.683594 126.90625 82.855469 127.367188 82.855469 C 127.84375 82.855469 128.257812 82.683594 128.601562 82.339844 C 128.945312 81.996094 129.117188 81.589844 129.117188 81.121094 L 129.117188 69.339844 Z M 136.226562 81.246094 "
       style=" stroke:none;fill-rule:nonzero;fill:rgb(24.313354%,50.195312%,79.214478%);fill-opacity:1;" />
    <path
       id="path8318"
       d="M 153.757812 74.339844 C 154.203125 74.339844 154.578125 74.183594 154.882812 73.871094 C 155.195312 73.558594 155.351562 73.183594 155.351562 72.746094 C 155.351562 72.320312 155.195312 71.949219 154.882812 71.636719 C 154.578125 71.324219 154.203125 71.167969 153.757812 71.167969 L 146.710938 71.167969 L 146.710938 67.058594 L 155.101562 67.058594 C 155.539062 67.058594 155.90625 66.910156 156.210938 66.605469 C 156.511719 66.304688 156.664062 65.929688 156.664062 65.480469 C 156.664062 65.042969 156.511719 64.675781 156.210938 64.371094 C 155.90625 64.070312 155.539062 63.917969 155.101562 63.917969 L 144.929688 63.917969 C 144.542969 63.917969 144.226562 63.988281 143.976562 64.121094 C 143.734375 64.257812 143.542969 64.429688 143.398438 64.636719 C 143.25 64.835938 143.152344 65.042969 143.101562 65.261719 C 143.058594 65.472656 143.039062 65.648438 143.039062 65.792969 L 143.039062 80.964844 C 143.039062 81.300781 143.089844 81.585938 143.195312 81.824219 C 143.308594 82.066406 143.453125 82.261719 143.632812 82.417969 C 143.820312 82.566406 144.023438 82.675781 144.242188 82.746094 C 144.46875 82.820312 144.699219 82.855469 144.929688 82.855469 L 155.101562 82.855469 C 155.539062 82.855469 155.90625 82.707031 156.210938 82.402344 C 156.511719 82.101562 156.664062 81.726562 156.664062 81.277344 C 156.664062 80.839844 156.511719 80.472656 156.210938 80.167969 C 155.90625 79.867188 155.539062 79.714844 155.101562 79.714844 L 146.710938 79.714844 L 146.710938 74.339844 Z M 153.757812 74.339844 "
       style=" stroke:none;fill-rule:nonzero;fill:rgb(24.313354%,50.195312%,79.214478%);fill-opacity:1;" />
    <g
       id="g8322"
       clip-rule="nonzero"
       clip-path="url(#clip1)">
      <path
         id="path8320"
         d="M 172.054688 77.136719 C 172.054688 76.230469 171.898438 75.472656 171.585938 74.855469 C 171.273438 74.242188 170.859375 73.730469 170.351562 73.324219 C 169.839844 72.910156 169.257812 72.582031 168.601562 72.339844 C 167.953125 72.101562 167.292969 71.898438 166.617188 71.730469 C 165.9375 71.566406 165.273438 71.414062 164.617188 71.277344 C 163.96875 71.144531 163.390625 70.976562 162.882812 70.777344 C 162.371094 70.570312 161.960938 70.320312 161.648438 70.027344 C 161.335938 69.738281 161.179688 69.339844 161.179688 68.839844 C 161.179688 68.164062 161.4375 67.628906 161.960938 67.230469 C 162.492188 66.835938 163.335938 66.636719 164.492188 66.636719 C 164.875 66.636719 165.265625 66.683594 165.664062 66.777344 C 166.070312 66.863281 166.445312 66.996094 166.789062 67.183594 C 167.132812 67.363281 167.429688 67.585938 167.679688 67.855469 C 167.9375 68.128906 168.132812 68.445312 168.257812 68.808594 C 168.351562 69.101562 168.507812 69.316406 168.726562 69.449219 C 168.953125 69.574219 169.203125 69.636719 169.476562 69.636719 C 169.683594 69.636719 169.890625 69.601562 170.101562 69.527344 C 170.308594 69.457031 170.496094 69.351562 170.664062 69.214844 C 170.839844 69.082031 170.980469 68.914062 171.085938 68.714844 C 171.1875 68.507812 171.242188 68.277344 171.242188 68.027344 C 171.242188 67.675781 171.117188 67.242188 170.867188 66.730469 C 170.617188 66.222656 170.214844 65.738281 169.664062 65.277344 C 169.121094 64.808594 168.429688 64.414062 167.585938 64.089844 C 166.742188 63.757812 165.714844 63.589844 164.507812 63.589844 C 163.515625 63.589844 162.605469 63.722656 161.773438 63.980469 C 160.9375 64.230469 160.21875 64.597656 159.617188 65.074219 C 159.011719 65.554688 158.539062 66.148438 158.195312 66.855469 C 157.851562 67.554688 157.667969 68.363281 157.648438 69.277344 C 157.648438 70.089844 157.796875 70.773438 158.101562 71.324219 C 158.414062 71.878906 158.820312 72.339844 159.320312 72.714844 C 159.820312 73.089844 160.386719 73.398438 161.023438 73.636719 C 161.667969 73.878906 162.324219 74.089844 162.992188 74.277344 C 163.65625 74.464844 164.308594 74.644531 164.945312 74.808594 C 165.589844 74.976562 166.164062 75.179688 166.664062 75.417969 C 167.164062 75.660156 167.5625 75.949219 167.867188 76.292969 C 168.179688 76.636719 168.335938 77.074219 168.335938 77.605469 C 168.335938 78.386719 167.980469 78.988281 167.273438 79.402344 C 166.574219 79.820312 165.621094 80.027344 164.414062 80.027344 C 163.183594 80.027344 162.28125 79.773438 161.710938 79.261719 C 161.148438 78.742188 160.761719 78.058594 160.554688 77.214844 C 160.46875 76.882812 160.3125 76.644531 160.085938 76.496094 C 159.867188 76.339844 159.621094 76.261719 159.351562 76.261719 C 159.140625 76.261719 158.929688 76.308594 158.710938 76.402344 C 158.5 76.496094 158.3125 76.628906 158.148438 76.792969 C 157.980469 76.960938 157.84375 77.164062 157.742188 77.402344 C 157.636719 77.644531 157.585938 77.910156 157.585938 78.199219 C 157.585938 78.730469 157.703125 79.285156 157.945312 79.855469 C 158.195312 80.429688 158.59375 80.964844 159.148438 81.464844 C 159.699219 81.964844 160.40625 82.378906 161.273438 82.699219 C 162.136719 83.011719 163.183594 83.167969 164.414062 83.167969 C 165.414062 83.167969 166.371094 83.046875 167.289062 82.808594 C 168.203125 82.570312 169.011719 82.207031 169.710938 81.714844 C 170.417969 81.226562 170.984375 80.601562 171.414062 79.839844 C 171.839844 79.082031 172.054688 78.179688 172.054688 77.136719 Z M 172.054688 77.136719 "
         style=" stroke:none;fill-rule:nonzero;fill:rgb(24.313354%,50.195312%,79.214478%);fill-opacity:1;" />
    </g>
    <path
       id="path8324"
       d="M 49.683594 102.328125 L 46.652344 90.875 L 48.199219 90.875 L 49.949219 98.375 C 50.136719 99.167969 50.296875 99.949219 50.433594 100.71875 C 50.722656 99.5 50.894531 98.796875 50.949219 98.609375 L 53.121094 90.875 L 54.949219 90.875 L 56.589844 96.671875 C 57.003906 98.109375 57.300781 99.460938 57.480469 100.71875 C 57.625 100 57.816406 99.171875 58.058594 98.234375 L 59.855469 90.875 L 61.371094 90.875 L 58.230469 102.328125 L 56.777344 102.328125 L 54.355469 93.59375 C 54.15625 92.867188 54.035156 92.417969 53.996094 92.25 C 53.878906 92.78125 53.769531 93.230469 53.667969 93.59375 L 51.230469 102.328125 Z M 68.011719 99.65625 L 69.464844 99.828125 C 69.234375 100.683594 68.808594 101.34375 68.183594 101.8125 C 67.566406 102.28125 66.78125 102.515625 65.824219 102.515625 C 64.605469 102.515625 63.640625 102.140625 62.933594 101.390625 C 62.222656 100.640625 61.871094 99.59375 61.871094 98.25 C 61.871094 96.855469 62.230469 95.773438 62.949219 95 C 63.667969 94.230469 64.597656 93.84375 65.746094 93.84375 C 66.847656 93.84375 67.75 94.226562 68.449219 94.984375 C 69.15625 95.734375 69.511719 96.792969 69.511719 98.15625 C 69.511719 98.242188 69.511719 98.367188 69.511719 98.53125 L 63.324219 98.53125 C 63.375 99.449219 63.628906 100.152344 64.089844 100.640625 C 64.558594 101.121094 65.136719 101.359375 65.824219 101.359375 C 66.34375 101.359375 66.785156 101.226562 67.152344 100.953125 C 67.515625 100.683594 67.800781 100.25 68.011719 99.65625 Z M 63.402344 97.375 L 68.027344 97.375 C 67.964844 96.679688 67.785156 96.15625 67.496094 95.8125 C 67.046875 95.273438 66.46875 95 65.761719 95 C 65.113281 95 64.566406 95.21875 64.121094 95.65625 C 63.683594 96.085938 63.441406 96.65625 63.402344 97.375 Z M 63.402344 97.375 "
       style=" stroke:none;fill-rule:nonzero;fill:rgb(48.234558%,47.450256%,47.450256%);fill-opacity:1;" />
    <path
       id="path8326"
       d="M 72.558594 102.328125 L 71.246094 102.328125 L 71.246094 90.875 L 72.652344 90.875 L 72.652344 94.953125 C 73.246094 94.214844 74.003906 93.84375 74.933594 93.84375 C 75.441406 93.84375 75.921875 93.949219 76.371094 94.15625 C 76.828125 94.355469 77.203125 94.640625 77.496094 95.015625 C 77.796875 95.390625 78.03125 95.84375 78.199219 96.375 C 78.363281 96.898438 78.449219 97.453125 78.449219 98.046875 C 78.449219 99.476562 78.09375 100.578125 77.386719 101.359375 C 76.6875 102.132812 75.84375 102.515625 74.855469 102.515625 C 73.875 102.515625 73.109375 102.105469 72.558594 101.28125 Z M 72.542969 98.109375 C 72.542969 99.109375 72.675781 99.828125 72.949219 100.265625 C 73.386719 100.996094 73.984375 101.359375 74.746094 101.359375 C 75.359375 101.359375 75.890625 101.09375 76.339844 100.5625 C 76.785156 100.023438 77.011719 99.226562 77.011719 98.171875 C 77.011719 97.089844 76.792969 96.292969 76.355469 95.78125 C 75.925781 95.261719 75.410156 95 74.808594 95 C 74.191406 95 73.660156 95.265625 73.214844 95.796875 C 72.765625 96.328125 72.542969 97.101562 72.542969 98.109375 Z M 72.542969 98.109375 "
       style=" stroke:none;fill-rule:nonzero;fill:rgb(48.234558%,47.450256%,47.450256%);fill-opacity:1;" />
    <path
       id="path8328"
       d="M 84.824219 102.328125 L 84.824219 90.875 L 86.339844 90.875 L 86.339844 95.578125 L 92.292969 95.578125 L 92.292969 90.875 L 93.808594 90.875 L 93.808594 102.328125 L 92.292969 102.328125 L 92.292969 96.921875 L 86.339844 96.921875 L 86.339844 102.328125 Z M 84.824219 102.328125 "
       style=" stroke:none;fill-rule:nonzero;fill:rgb(48.234558%,47.450256%,47.450256%);fill-opacity:1;" />
    <path
       id="path8330"
       d="M 95.636719 98.171875 C 95.636719 96.640625 96.0625 95.507812 96.917969 94.765625 C 97.636719 94.152344 98.503906 93.84375 99.527344 93.84375 C 100.671875 93.84375 101.605469 94.21875 102.324219 94.96875 C 103.050781 95.710938 103.417969 96.742188 103.417969 98.0625 C 103.417969 99.125 103.253906 99.964844 102.933594 100.578125 C 102.609375 101.195312 102.140625 101.671875 101.527344 102.015625 C 100.921875 102.347656 100.253906 102.515625 99.527344 102.515625 C 98.371094 102.515625 97.433594 102.148438 96.714844 101.40625 C 95.996094 100.65625 95.636719 99.578125 95.636719 98.171875 Z M 97.089844 98.171875 C 97.089844 99.234375 97.316406 100.03125 97.777344 100.5625 C 98.246094 101.09375 98.828125 101.359375 99.527344 101.359375 C 100.222656 101.359375 100.800781 101.09375 101.261719 100.5625 C 101.730469 100.03125 101.964844 99.21875 101.964844 98.125 C 101.964844 97.105469 101.730469 96.328125 101.261719 95.796875 C 100.800781 95.265625 100.222656 95 99.527344 95 C 98.828125 95 98.246094 95.265625 97.777344 95.796875 C 97.316406 96.320312 97.089844 97.109375 97.089844 98.171875 Z M 97.089844 98.171875 "
       style=" stroke:none;fill-rule:nonzero;fill:rgb(48.234558%,47.450256%,47.450256%);fill-opacity:1;" />
    <path
       id="path8332"
       d="M 104.511719 99.84375 L 105.902344 99.625 C 105.972656 100.1875 106.1875 100.621094 106.542969 100.921875 C 106.90625 101.214844 107.40625 101.359375 108.042969 101.359375 C 108.6875 101.359375 109.167969 101.230469 109.480469 100.96875 C 109.792969 100.699219 109.949219 100.386719 109.949219 100.03125 C 109.949219 99.71875 109.8125 99.46875 109.542969 99.28125 C 109.34375 99.15625 108.863281 99 108.105469 98.8125 C 107.074219 98.554688 106.355469 98.328125 105.949219 98.140625 C 105.550781 97.945312 105.25 97.679688 105.042969 97.34375 C 104.84375 97.011719 104.746094 96.640625 104.746094 96.234375 C 104.746094 95.859375 104.828125 95.515625 104.996094 95.203125 C 105.160156 94.890625 105.390625 94.632812 105.683594 94.421875 C 105.902344 94.257812 106.199219 94.121094 106.574219 94.015625 C 106.957031 93.902344 107.363281 93.84375 107.792969 93.84375 C 108.449219 93.84375 109.019531 93.9375 109.511719 94.125 C 110 94.3125 110.359375 94.570312 110.589844 94.890625 C 110.828125 95.203125 110.996094 95.632812 111.089844 96.171875 L 109.714844 96.359375 C 109.652344 95.933594 109.46875 95.601562 109.167969 95.359375 C 108.863281 95.121094 108.441406 95 107.902344 95 C 107.253906 95 106.792969 95.109375 106.511719 95.328125 C 106.238281 95.539062 106.105469 95.78125 106.105469 96.0625 C 106.105469 96.25 106.160156 96.417969 106.277344 96.5625 C 106.390625 96.710938 106.566406 96.835938 106.808594 96.9375 C 106.953125 96.992188 107.371094 97.109375 108.058594 97.296875 C 109.046875 97.558594 109.738281 97.777344 110.136719 97.953125 C 110.53125 98.121094 110.839844 98.367188 111.058594 98.6875 C 111.285156 99.011719 111.402344 99.414062 111.402344 99.890625 C 111.402344 100.359375 111.261719 100.804688 110.980469 101.21875 C 110.707031 101.625 110.3125 101.945312 109.792969 102.171875 C 109.28125 102.398438 108.703125 102.515625 108.058594 102.515625 C 106.972656 102.515625 106.152344 102.292969 105.589844 101.84375 C 105.027344 101.398438 104.667969 100.730469 104.511719 99.84375 Z M 104.511719 99.84375 "
       style=" stroke:none;fill-rule:nonzero;fill:rgb(48.234558%,47.450256%,47.450256%);fill-opacity:1;" />
    <path
       id="path8334"
       d="M 116.136719 101.0625 L 116.339844 102.3125 C 115.941406 102.394531 115.589844 102.4375 115.277344 102.4375 C 114.765625 102.4375 114.371094 102.359375 114.089844 102.203125 C 113.808594 102.039062 113.609375 101.824219 113.496094 101.5625 C 113.378906 101.292969 113.324219 100.734375 113.324219 99.890625 L 113.324219 95.125 L 112.292969 95.125 L 112.292969 94.03125 L 113.324219 94.03125 L 113.324219 91.96875 L 114.730469 91.125 L 114.730469 94.03125 L 116.136719 94.03125 L 116.136719 95.125 L 114.730469 95.125 L 114.730469 99.96875 C 114.730469 100.375 114.75 100.636719 114.792969 100.75 C 114.84375 100.867188 114.925781 100.960938 115.042969 101.03125 C 115.15625 101.09375 115.316406 101.125 115.527344 101.125 C 115.683594 101.125 115.886719 101.105469 116.136719 101.0625 Z M 116.136719 101.0625 "
       style=" stroke:none;fill-rule:nonzero;fill:rgb(48.234558%,47.450256%,47.450256%);fill-opacity:1;" />
    <path
       id="path8336"
       d="M 117.511719 92.484375 L 117.511719 90.875 L 118.917969 90.875 L 118.917969 92.484375 Z M 117.511719 102.328125 L 117.511719 94.03125 L 118.917969 94.03125 L 118.917969 102.328125 Z M 117.511719 102.328125 "
       style=" stroke:none;fill-rule:nonzero;fill:rgb(48.234558%,47.450256%,47.450256%);fill-opacity:1;" />
    <path
       id="path8338"
       d="M 121.074219 102.328125 L 121.074219 94.03125 L 122.339844 94.03125 L 122.339844 95.203125 C 122.941406 94.296875 123.824219 93.84375 124.980469 93.84375 C 125.480469 93.84375 125.9375 93.933594 126.355469 94.109375 C 126.769531 94.289062 127.082031 94.523438 127.292969 94.8125 C 127.5 95.105469 127.644531 95.453125 127.730469 95.859375 C 127.78125 96.121094 127.808594 96.574219 127.808594 97.21875 L 127.808594 102.328125 L 126.402344 102.328125 L 126.402344 97.28125 C 126.402344 96.710938 126.34375 96.28125 126.230469 96 C 126.125 95.710938 125.933594 95.480469 125.652344 95.3125 C 125.378906 95.148438 125.058594 95.0625 124.683594 95.0625 C 124.078125 95.0625 123.558594 95.257812 123.121094 95.640625 C 122.691406 96.015625 122.480469 96.734375 122.480469 97.796875 L 122.480469 102.328125 Z M 121.074219 102.328125 "
       style=" stroke:none;fill-rule:nonzero;fill:rgb(48.234558%,47.450256%,47.450256%);fill-opacity:1;" />
    <g
       id="g8342"
       clip-rule="nonzero"
       clip-path="url(#clip2)">
      <path
         id="path8340"
         d="M 129.714844 103.015625 L 131.089844 103.21875 C 131.140625 103.644531 131.296875 103.953125 131.558594 104.140625 C 131.910156 104.398438 132.390625 104.53125 132.996094 104.53125 C 133.640625 104.53125 134.140625 104.398438 134.496094 104.140625 C 134.847656 103.878906 135.089844 103.515625 135.214844 103.046875 C 135.285156 102.765625 135.324219 102.164062 135.324219 101.234375 C 134.707031 101.964844 133.941406 102.328125 133.027344 102.328125 C 131.878906 102.328125 130.996094 101.917969 130.371094 101.09375 C 129.746094 100.273438 129.433594 99.28125 129.433594 98.125 C 129.433594 97.335938 129.574219 96.605469 129.855469 95.9375 C 130.144531 95.273438 130.5625 94.757812 131.105469 94.390625 C 131.65625 94.027344 132.296875 93.84375 133.027344 93.84375 C 134.003906 93.84375 134.8125 94.242188 135.449219 95.03125 L 135.449219 94.03125 L 136.746094 94.03125 L 136.746094 101.203125 C 136.746094 102.492188 136.613281 103.410156 136.355469 103.953125 C 136.09375 104.492188 135.675781 104.921875 135.105469 105.234375 C 134.53125 105.546875 133.828125 105.703125 132.996094 105.703125 C 132.003906 105.703125 131.203125 105.476562 130.589844 105.03125 C 129.984375 104.582031 129.691406 103.910156 129.714844 103.015625 Z M 130.886719 98.03125 C 130.886719 99.117188 131.097656 99.90625 131.527344 100.40625 C 131.964844 100.90625 132.503906 101.15625 133.152344 101.15625 C 133.796875 101.15625 134.339844 100.914062 134.777344 100.421875 C 135.214844 99.921875 135.433594 99.140625 135.433594 98.078125 C 135.433594 97.058594 135.207031 96.292969 134.761719 95.78125 C 134.3125 95.261719 133.769531 95 133.136719 95 C 132.511719 95 131.980469 95.257812 131.542969 95.765625 C 131.105469 96.277344 130.886719 97.03125 130.886719 98.03125 Z M 130.886719 98.03125 "
         style=" stroke:none;fill-rule:nonzero;fill:rgb(48.234558%,47.450256%,47.450256%);fill-opacity:1;" />
    </g>
    <path
       id="path8344"
       d="M 47.941406 55.914062 C 39.945312 55.914062 33.464844 49.433594 33.464844 41.441406 C 33.464844 35.046875 37.71875 29.367188 43.835938 27.558594 C 44.15625 23.648438 46.058594 20.046875 49.101562 17.558594 C 52.136719 15.074219 56.019531 13.929688 59.910156 14.386719 C 61.195312 11.792969 63.210938 9.695312 65.625 8.292969 C 68.097656 6.855469 71 6.148438 73.972656 6.382812 C 76.601562 2.480469 80.957031 0.101562 85.65625 0 C 90.347656 0.101562 94.707031 2.480469 97.335938 6.382812 C 100.308594 6.148438 103.207031 6.855469 105.679688 8.292969 C 108.097656 9.695312 110.109375 11.792969 111.398438 14.386719 C 115.285156 13.929688 119.171875 15.074219 122.207031 17.558594 C 125.25 20.046875 127.152344 23.648438 127.46875 27.558594 C 133.589844 29.367188 137.839844 35.046875 137.839844 41.441406 C 137.839844 49.433594 131.359375 55.914062 123.367188 55.914062 L 108.984375 55.917969 C 107.199219 55.917969 105.917969 54.585938 105.921875 52.839844 C 105.921875 51.097656 107.195312 49.742188 108.984375 49.742188 L 123.367188 49.746094 C 127.953125 49.746094 131.671875 46.027344 131.671875 41.441406 C 131.671875 37.121094 128.40625 33.539062 124.097656 33.167969 L 120.929688 32.894531 L 121.304688 29.734375 C 121.636719 26.882812 120.503906 24.164062 118.269531 22.347656 C 114.539062 19.3125 111.347656 20.558594 107.3125 21.898438 C 106.515625 18.820312 106.195312 16.296875 103.519531 14.230469 C 100.339844 11.769531 97.5 12.476562 93.96875 13.34375 C 92.183594 9.421875 90.5 6.351562 85.65625 6.171875 C 80.808594 6.351562 79.125 9.421875 77.339844 13.34375 C 73.808594 12.476562 70.96875 11.769531 67.785156 14.230469 C 65.109375 16.296875 64.792969 18.820312 63.996094 21.898438 C 59.957031 20.558594 56.769531 19.3125 53.035156 22.347656 C 50.800781 24.164062 49.667969 26.882812 50.003906 29.734375 L 50.378906 32.894531 L 47.207031 33.167969 C 42.898438 33.539062 39.636719 37.121094 39.636719 41.441406 C 39.636719 46.027344 43.355469 49.746094 47.941406 49.746094 L 62.320312 49.742188 C 64.109375 49.742188 65.382812 51.097656 65.386719 52.839844 C 65.390625 54.585938 64.109375 55.917969 62.320312 55.917969 L 47.941406 55.914062 "
       style=" stroke:none;fill-rule:nonzero;fill:rgb(24.313354%,50.195312%,79.214478%);fill-opacity:1;" />
    <path
       id="path8346"
       d="M 85.792969 43.566406 L 75.269531 43.566406 C 73.480469 43.566406 72.199219 42.234375 72.203125 40.488281 C 72.207031 38.75 73.476562 37.394531 75.269531 37.394531 L 91.03125 37.394531 C 90.464844 38.289062 90.140625 39.347656 90.140625 40.480469 C 90.140625 41.617188 90.464844 42.675781 91.03125 43.566406 Z M 85.792969 55.914062 L 85.511719 55.914062 L 75.269531 55.917969 C 73.480469 55.917969 72.199219 54.585938 72.203125 52.839844 C 72.207031 51.097656 73.476562 49.742188 75.269531 49.742188 L 85.511719 49.746094 L 85.792969 49.746094 L 96.039062 49.742188 C 97.828125 49.742188 99.101562 51.097656 99.105469 52.839844 C 99.105469 54.585938 97.828125 55.917969 96.039062 55.917969 Z M 85.792969 31.21875 L 75.269531 31.21875 C 73.480469 31.21875 72.199219 29.886719 72.203125 28.140625 C 72.207031 26.398438 73.476562 25.046875 75.269531 25.046875 L 96.039062 25.046875 C 97.828125 25.046875 99.101562 26.398438 99.105469 28.140625 C 99.105469 29.886719 97.828125 31.21875 96.039062 31.21875 L 85.792969 31.21875 "
       style=" stroke:none;fill-rule:nonzero;fill:rgb(48.234558%,47.450256%,47.450256%);fill-opacity:1;" />
    <path
       id="path8348"
       d="M 95.921875 37.300781 C 97.679688 37.300781 99.101562 38.726562 99.101562 40.480469 C 99.101562 42.238281 97.679688 43.660156 95.921875 43.660156 C 94.167969 43.660156 92.746094 42.238281 92.746094 40.480469 C 92.746094 38.726562 94.167969 37.300781 95.921875 37.300781 "
       style=" stroke:none;fill-rule:evenodd;fill:rgb(24.313354%,50.195312%,79.214478%);fill-opacity:1;" />
  </g>
</svg>
